<svg id="visual" viewBox="0 0 900 50" width="900" height="50" xmlns="http://www.w3.org/2000/svg" xmlns:xlink="http://www.w3.org/1999/xlink" version="1.1"><rect x="0" y="0" width="900" height="50" fill="#202731"></rect><path d="M0 12L10.7 12.8C21.3 13.7 42.7 15.3 64.2 17.3C85.7 19.3 107.3 21.7 128.8 23.2C150.3 24.7 171.7 25.3 193 24.7C214.3 24 235.7 22 257 20C278.3 18 299.7 16 321.2 16.2C342.7 16.3 364.3 18.7 385.8 17.7C407.3 16.7 428.7 12.3 450 11.5C471.3 10.7 492.7 13.3 514.2 14.2C535.7 15 557.3 14 578.8 14.2C600.3 14.3 621.7 15.7 643 17.2C664.3 18.7 685.7 20.3 707 20C728.3 19.7 749.7 17.3 771.2 15.8C792.7 14.3 814.3 13.7 835.8 15.2C857.3 16.7 878.7 20.3 889.3 22.2L900 24L900 51L889.3 51C878.7 51 857.3 51 835.8 51C814.3 51 792.7 51 771.2 51C749.7 51 728.3 51 707 51C685.7 51 664.3 51 643 51C621.7 51 600.3 51 578.8 51C557.3 51 535.7 51 514.2 51C492.7 51 471.3 51 450 51C428.7 51 407.3 51 385.8 51C364.3 51 342.7 51 321.2 51C299.7 51 278.3 51 257 51C235.7 51 214.3 51 193 51C171.7 51 150.3 51 128.8 51C107.3 51 85.7 51 64.2 51C42.7 51 21.3 51 10.7 51L0 51Z" fill="#929292"></path><path d="M0 28L10.7 28C21.3 28 42.7 28 64.2 28.3C85.7 28.7 107.3 29.3 128.8 28.7C150.3 28 171.7 26 193 26.2C214.3 26.3 235.7 28.7 257 29C278.3 29.3 299.7 27.7 321.2 27.5C342.7 27.3 364.3 28.7 385.8 30C407.3 31.3 428.7 32.7 450 33.2C471.3 33.7 492.7 33.3 514.2 33.3C535.7 33.3 557.3 33.7 578.8 32.5C600.3 31.3 621.7 28.7 643 27.5C664.3 26.3 685.7 26.7 707 27.5C728.3 28.3 749.7 29.7 771.2 28.8C792.7 28 814.3 25 835.8 25.5C857.3 26 878.7 30 889.3 32L900 34L900 51L889.3 51C878.7 51 857.3 51 835.8 51C814.3 51 792.7 51 771.2 51C749.7 51 728.3 51 707 51C685.7 51 664.3 51 643 51C621.7 51 600.3 51 578.8 51C557.3 51 535.7 51 514.2 51C492.7 51 471.3 51 450 51C428.7 51 407.3 51 385.8 51C364.3 51 342.7 51 321.2 51C299.7 51 278.3 51 257 51C235.7 51 214.3 51 193 51C171.7 51 150.3 51 128.8 51C107.3 51 85.7 51 64.2 51C42.7 51 21.3 51 10.7 51L0 51Z" fill="#c2c2c2"></path><path d="M0 42L10.7 41.8C21.3 41.7 42.7 41.3 64.2 41C85.7 40.7 107.3 40.3 128.8 39.5C150.3 38.7 171.7 37.3 193 36.8C214.3 36.3 235.7 36.7 257 35.8C278.3 35 299.7 33 321.2 32.5C342.7 32 364.3 33 385.8 32.8C407.3 32.7 428.7 31.3 450 32.3C471.3 33.3 492.7 36.7 514.2 38.3C535.7 40 557.3 40 578.8 38.7C600.3 37.3 621.7 34.7 643 35.2C664.3 35.7 685.7 39.3 707 40.7C728.3 42 749.7 41 771.2 41C792.7 41 814.3 42 835.8 41.7C857.3 41.3 878.7 39.7 889.3 38.8L900 38L900 51L889.3 51C878.7 51 857.3 51 835.8 51C814.3 51 792.7 51 771.2 51C749.7 51 728.3 51 707 51C685.7 51 664.3 51 643 51C621.7 51 600.3 51 578.8 51C557.3 51 535.7 51 514.2 51C492.7 51 471.3 51 450 51C428.7 51 407.3 51 385.8 51C364.3 51 342.7 51 321.2 51C299.7 51 278.3 51 257 51C235.7 51 214.3 51 193 51C171.7 51 150.3 51 128.8 51C107.3 51 85.7 51 64.2 51C42.7 51 21.3 51 10.7 51L0 51Z" fill="#f5f5f5"></path></svg>