<svg id="visual" viewBox="0 0 900 200" width="900" height="200" xmlns="http://www.w3.org/2000/svg" xmlns:xlink="http://www.w3.org/1999/xlink" version="1.1"><path d="M0 37L82 85L164 51L245 87L327 77L409 73L491 47L573 63L655 29L736 77L818 37L900 57L900 0L818 0L736 0L655 0L573 0L491 0L409 0L327 0L245 0L164 0L82 0L0 0Z" fill="#202731"></path><path d="M0 119L82 123L164 107L245 119L327 127L409 147L491 115L573 105L655 109L736 111L818 123L900 101L900 55L818 35L736 75L655 27L573 61L491 45L409 71L327 75L245 85L164 49L82 83L0 35Z" fill="#404d59"></path><path d="M0 141L82 167L164 125L245 153L327 165L409 161L491 141L573 123L655 137L736 131L818 141L900 131L900 99L818 121L736 109L655 107L573 103L491 113L409 145L327 125L245 117L164 105L82 121L0 117Z" fill="#637784"></path><path d="M0 171L82 179L164 149L245 175L327 181L409 175L491 155L573 143L655 165L736 153L818 173L900 155L900 129L818 139L736 129L655 135L573 121L491 139L409 159L327 163L245 151L164 123L82 165L0 139Z" fill="#88a4b0"></path><path d="M0 201L82 201L164 201L245 201L327 201L409 201L491 201L573 201L655 201L736 201L818 201L900 201L900 153L818 171L736 151L655 163L573 141L491 153L409 173L327 179L245 173L164 147L82 177L0 169Z" fill="#b0d4dc"></path></svg>