<svg id="visual" viewBox="0 0 900 200" width="900" height="200" xmlns="http://www.w3.org/2000/svg" xmlns:xlink="http://www.w3.org/1999/xlink" version="1.1"><path d="M0 35L82 55L164 39L245 37L327 49L409 27L491 29L573 53L655 37L736 47L818 45L900 41L900 0L818 0L736 0L655 0L573 0L491 0L409 0L327 0L245 0L164 0L82 0L0 0Z" fill="#202731"></path><path d="M0 115L82 101L164 131L245 99L327 107L409 83L491 75L573 111L655 69L736 103L818 73L900 121L900 39L818 43L736 45L655 35L573 51L491 27L409 25L327 47L245 35L164 37L82 53L0 33Z" fill="#404d59"></path><path d="M0 137L82 113L164 143L245 127L327 141L409 107L491 105L573 123L655 95L736 131L818 97L900 141L900 119L818 71L736 101L655 67L573 109L491 73L409 81L327 105L245 97L164 129L82 99L0 113Z" fill="#637784"></path><path d="M0 177L82 165L164 185L245 175L327 183L409 167L491 183L573 181L655 177L736 187L818 169L900 177L900 139L818 95L736 129L655 93L573 121L491 103L409 105L327 139L245 125L164 141L82 111L0 135Z" fill="#88a4b0"></path><path d="M0 201L82 201L164 201L245 201L327 201L409 201L491 201L573 201L655 201L736 201L818 201L900 201L900 175L818 167L736 185L655 175L573 179L491 181L409 165L327 181L245 173L164 183L82 163L0 175Z" fill="#b0d4dc"></path></svg>