<svg id="visual" viewBox="0 0 900 50" width="900" height="50" xmlns="http://www.w3.org/2000/svg" xmlns:xlink="http://www.w3.org/1999/xlink" version="1.1"><path d="M0 11L50 10L100 10L150 8L200 12L250 8L300 8L350 8L400 7L450 10L500 12L550 11L600 10L650 8L700 9L750 6L800 4L850 8L900 10L900 0L850 0L800 0L750 0L700 0L650 0L600 0L550 0L500 0L450 0L400 0L350 0L300 0L250 0L200 0L150 0L100 0L50 0L0 0Z" fill="#202731"></path><path d="M0 18L50 25L100 27L150 25L200 19L250 25L300 25L350 23L400 18L450 23L500 18L550 24L600 16L650 22L700 20L750 25L800 17L850 21L900 21L900 8L850 6L800 2L750 4L700 7L650 6L600 8L550 9L500 10L450 8L400 5L350 6L300 6L250 6L200 10L150 6L100 8L50 8L0 9Z" fill="#323c48"></path><path d="M0 21L50 26L100 32L150 29L200 21L250 28L300 27L350 25L400 21L450 26L500 22L550 26L600 18L650 24L700 22L750 28L800 20L850 26L900 25L900 19L850 19L800 15L750 23L700 18L650 20L600 14L550 22L500 16L450 21L400 16L350 21L300 23L250 23L200 17L150 23L100 25L50 23L0 16Z" fill="#45535f"></path><path d="M0 25L50 29L100 34L150 34L200 23L250 31L300 29L350 27L400 27L450 32L500 25L550 31L600 24L650 27L700 25L750 33L800 25L850 29L900 30L900 23L850 24L800 18L750 26L700 20L650 22L600 16L550 24L500 20L450 24L400 19L350 23L300 25L250 26L200 19L150 27L100 30L50 24L0 19Z" fill="#596b78"></path><path d="M0 29L50 33L100 36L150 38L200 27L250 35L300 31L350 30L400 29L450 36L500 29L550 34L600 29L650 30L700 27L750 34L800 29L850 32L900 35L900 28L850 27L800 23L750 31L700 23L650 25L600 22L550 29L500 23L450 30L400 25L350 25L300 27L250 29L200 21L150 32L100 32L50 27L0 23Z" fill="#6d8490"></path><path d="M0 45L50 39L100 42L150 45L200 43L250 44L300 38L350 41L400 40L450 41L500 42L550 42L600 42L650 38L700 41L750 40L800 38L850 38L900 44L900 33L850 30L800 27L750 32L700 25L650 28L600 27L550 32L500 27L450 34L400 27L350 28L300 29L250 33L200 25L150 36L100 34L50 31L0 27Z" fill="#839eaa"></path><path d="M0 47L50 47L100 46L150 48L200 47L250 47L300 46L350 44L400 47L450 45L500 47L550 46L600 45L650 47L700 48L750 47L800 45L850 45L900 49L900 42L850 36L800 36L750 38L700 39L650 36L600 40L550 40L500 40L450 39L400 38L350 39L300 36L250 42L200 41L150 43L100 40L50 37L0 43Z" fill="#99b8c3"></path><path d="M0 51L50 51L100 51L150 51L200 51L250 51L300 51L350 51L400 51L450 51L500 51L550 51L600 51L650 51L700 51L750 51L800 51L850 51L900 51L900 47L850 43L800 43L750 45L700 46L650 45L600 43L550 44L500 45L450 43L400 45L350 42L300 44L250 45L200 45L150 46L100 44L50 45L0 45Z" fill="#b0d4dc"></path></svg>