<svg id="visual" viewBox="0 0 900 50" width="900" height="50" xmlns="http://www.w3.org/2000/svg" xmlns:xlink="http://www.w3.org/1999/xlink" version="1.1"><path d="M0 8L50 11L100 17L150 11L200 9L250 13L300 15L350 11L400 15L450 13L500 15L550 8L600 18L650 11L700 11L750 8L800 13L850 15L900 13L900 0L850 0L800 0L750 0L700 0L650 0L600 0L550 0L500 0L450 0L400 0L350 0L300 0L250 0L200 0L150 0L100 0L50 0L0 0Z" fill="#202731"></path><path d="M0 12L50 14L100 22L150 13L200 12L250 16L300 20L350 17L400 18L450 16L500 18L550 11L600 24L650 15L700 17L750 11L800 18L850 19L900 15L900 11L850 13L800 11L750 6L700 9L650 9L600 16L550 6L500 13L450 11L400 13L350 9L300 13L250 11L200 7L150 9L100 15L50 9L0 6Z" fill="#323c48"></path><path d="M0 17L50 17L100 25L150 17L200 15L250 18L300 23L350 20L400 20L450 18L500 23L550 15L600 28L650 19L700 21L750 15L800 22L850 23L900 20L900 13L850 17L800 16L750 9L700 15L650 13L600 22L550 9L500 16L450 14L400 16L350 15L300 18L250 14L200 10L150 11L100 20L50 12L0 10Z" fill="#45535f"></path><path d="M0 25L50 21L100 28L150 22L200 24L250 26L300 33L350 27L400 28L450 28L500 30L550 21L600 31L650 22L700 27L750 23L800 26L850 26L900 24L900 18L850 21L800 20L750 13L700 19L650 17L600 26L550 13L500 21L450 16L400 18L350 18L300 21L250 16L200 13L150 15L100 23L50 15L0 15Z" fill="#596b78"></path><path d="M0 28L50 24L100 34L150 26L200 29L250 33L300 39L350 34L400 34L450 37L500 35L550 29L600 39L650 29L700 33L750 27L800 32L850 34L900 27L900 22L850 24L800 24L750 21L700 25L650 20L600 29L550 19L500 28L450 26L400 26L350 25L300 31L250 24L200 22L150 20L100 26L50 19L0 23Z" fill="#6d8490"></path><path d="M0 32L50 27L100 39L150 29L200 35L250 40L300 42L350 40L400 40L450 40L500 39L550 35L600 42L650 35L700 37L750 29L800 38L850 38L900 32L900 25L850 32L800 30L750 25L700 31L650 27L600 37L550 27L500 33L450 35L400 32L350 32L300 37L250 31L200 27L150 24L100 32L50 22L0 26Z" fill="#839eaa"></path><path d="M0 37L50 32L100 44L150 33L200 39L250 44L300 44L350 43L400 44L450 44L500 43L550 37L600 44L650 38L700 38L750 32L800 42L850 39L900 34L900 30L850 36L800 36L750 27L700 35L650 33L600 40L550 33L500 37L450 38L400 38L350 38L300 40L250 38L200 33L150 27L100 37L50 25L0 30Z" fill="#99b8c3"></path><path d="M0 51L50 51L100 51L150 51L200 51L250 51L300 51L350 51L400 51L450 51L500 51L550 51L600 51L650 51L700 51L750 51L800 51L850 51L900 51L900 32L850 37L800 40L750 30L700 36L650 36L600 42L550 35L500 41L450 42L400 42L350 41L300 42L250 42L200 37L150 31L100 42L50 30L0 35Z" fill="#b0d4dc"></path></svg>